<svg id="Layer_1" data-name="Layer 1" xmlns="http://www.w3.org/2000/svg" viewBox="0 0 905.85 425.33"><defs><style>.cls-1{fill:#221f1f;}.cls-2{fill:#209fda;}</style></defs><title>jahia-academy</title><path class="cls-1" d="M1427.89,760.66V656.17a56.32,56.32,0,1,0-56.32,56.33h24.09v48.16h-26.34a104.5,104.5,0,1,1,106.75-104.49V760.66Z" transform="translate(-570.22 -444.48)"/><path class="cls-1" d="M1106.28,760.66V656.18a56.32,56.32,0,0,0-112.58-2.71h-.06l0,2.71V760.66H945.44V444.48h48.18V568.06l4.07-2.36a104.48,104.48,0,0,1,156.77,90.47V760.66Z" transform="translate(-570.22 -444.48)"/><path class="cls-1" d="M865.07,760.66V656.17a56.32,56.32,0,1,0-56.32,56.33h24.09v48.16H806.5A104.5,104.5,0,1,1,913.25,656.17V760.66Z" transform="translate(-570.22 -444.48)"/><path class="cls-2" d="M623.85,525.93H672v34a236.18,236.18,0,0,0-48.18,17.44Z" transform="translate(-570.22 -444.48)"/><path class="cls-1" d="M570.22,819.65a56.39,56.39,0,0,0,53.64-56.26V610.76A200,200,0,0,1,672,589.54V763.37A104.5,104.5,0,0,1,570.22,867.86Z" transform="translate(-570.22 -444.48)"/><path class="cls-2" d="M1235.78,577.42A236.23,236.23,0,0,0,1187.6,560v-34h48.18Z" transform="translate(-570.22 -444.48)"/><path class="cls-1" d="M1187.6,760.66V589.54a200,200,0,0,1,48.18,21.22V760.66Z" transform="translate(-570.22 -444.48)"/><path class="cls-2" d="M1098.8,869.1H1087.3a5.31,5.31,0,0,1-3.18-.9,4.62,4.62,0,0,1-1.74-2.31l-3.77-11.14H1054.3l-3.78,11.14a5.07,5.07,0,0,1-4.83,3.21h-11.59l24.75-63.95h15.19Zm-41.08-24.45h17.47l-5.88-17.51q-.58-1.66-1.34-3.93t-1.52-4.89q-.71,2.67-1.45,5t-1.41,4Z" transform="translate(-570.22 -444.48)"/><path class="cls-2" d="M1144.32,852.56a2.81,2.81,0,0,1,2.06.87l5.88,6.19a24.26,24.26,0,0,1-9.68,7.61,33.8,33.8,0,0,1-13.76,2.57,32.77,32.77,0,0,1-13.05-2.48,28.29,28.29,0,0,1-9.79-6.85,30.16,30.16,0,0,1-6.16-10.35,38.3,38.3,0,0,1-2.15-13,34.34,34.34,0,0,1,2.46-13.15,30.65,30.65,0,0,1,6.87-10.34,31,31,0,0,1,10.55-6.75,36.78,36.78,0,0,1,13.57-2.42,35,35,0,0,1,6.78.63,33.55,33.55,0,0,1,5.94,1.76,27.58,27.58,0,0,1,5.09,2.68,24.41,24.41,0,0,1,4.13,3.45l-5,6.71a6.39,6.39,0,0,1-1.14,1.11,2.93,2.93,0,0,1-1.84.51,3.19,3.19,0,0,1-1.49-.35,15.33,15.33,0,0,1-1.49-.85l-1.74-1.1a12.37,12.37,0,0,0-2.24-1.1,17.64,17.64,0,0,0-3-.86,20.26,20.26,0,0,0-4.06-.35,18.53,18.53,0,0,0-7.37,1.42,16.25,16.25,0,0,0-5.73,4.08,19,19,0,0,0-3.73,6.43,25.28,25.28,0,0,0-1.34,8.48,26.32,26.32,0,0,0,1.34,8.73,19.18,19.18,0,0,0,3.64,6.43,15.37,15.37,0,0,0,5.37,4,16.05,16.05,0,0,0,6.58,1.36,32.22,32.22,0,0,0,3.69-.2,15.29,15.29,0,0,0,3.09-.69,13.69,13.69,0,0,0,2.72-1.25,17.8,17.8,0,0,0,2.61-1.9,4.86,4.86,0,0,1,1.14-.73A3,3,0,0,1,1144.32,852.56Z" transform="translate(-570.22 -444.48)"/><path class="cls-2" d="M1218.53,869.1H1207a5.32,5.32,0,0,1-3.18-.9,4.66,4.66,0,0,1-1.73-2.31l-3.77-11.14H1174l-3.77,11.14a5.08,5.08,0,0,1-4.83,3.21h-11.59l24.76-63.95h15.18Zm-41.08-24.45h17.46L1189,827.15l-1.34-3.93q-.77-2.26-1.52-4.89c-.46,1.78-1,3.44-1.45,5s-1,2.84-1.4,4Z" transform="translate(-570.22 -444.48)"/><path class="cls-2" d="M1281.72,837.12a33.53,33.53,0,0,1-2.39,12.79,29.92,29.92,0,0,1-6.74,10.14,30.54,30.54,0,0,1-10.47,6.67,37,37,0,0,1-13.58,2.39h-24.84V805.16h24.84a36.67,36.67,0,0,1,13.58,2.42,31.05,31.05,0,0,1,10.47,6.67,29.65,29.65,0,0,1,6.74,10.11A33.45,33.45,0,0,1,1281.72,837.12Zm-15.18,0a27.76,27.76,0,0,0-1.23-8.56,18.18,18.18,0,0,0-3.53-6.47,15.24,15.24,0,0,0-5.64-4.08,19.09,19.09,0,0,0-7.59-1.43h-9.93V857.7h9.93a19.09,19.09,0,0,0,7.59-1.43,15.15,15.15,0,0,0,5.64-4.08,18.18,18.18,0,0,0,3.53-6.47A27.87,27.87,0,0,0,1266.54,837.12Z" transform="translate(-570.22 -444.48)"/><path class="cls-2" d="M1330,805.16v11.41h-26.25v14.92h20.1v11h-20.1V857.7H1330V869.1h-41.16V805.16Z" transform="translate(-570.22 -444.48)"/><path class="cls-2" d="M1372.81,843.34q.81,1.8,1.55,3.69.75-1.94,1.59-3.76c.56-1.21,1.12-2.39,1.71-3.53l16.41-32.33a5.36,5.36,0,0,1,.9-1.3,3,3,0,0,1,1-.68,3.56,3.56,0,0,1,1.29-.22h13v63.9h-13.08V832.32q0-2.67.27-5.79l-16.95,32.86a5.57,5.57,0,0,1-2.13,2.33,5.93,5.93,0,0,1-3.05.79h-2a5.93,5.93,0,0,1-3.05-.79,5.57,5.57,0,0,1-2.13-2.33l-17-32.92c.12,1,.21,2,.27,3.05s.09,1.94.09,2.79V869.1h-13.08V805.2h13a3.56,3.56,0,0,1,1.29.22,3,3,0,0,1,1,.68,5.89,5.89,0,0,1,.9,1.3l16.46,32.46C1371.71,841,1372.26,842.14,1372.81,843.34Z" transform="translate(-570.22 -444.48)"/><path class="cls-2" d="M1452.71,844.8V869.1h-14.84V844.8l-23.17-39.64h13.08a4.82,4.82,0,0,1,3.07.9,6.73,6.73,0,0,1,1.84,2.31l9,18.61c.73,1.49,1.41,2.86,2,4.12s1.16,2.5,1.63,3.73a34.25,34.25,0,0,1,1.58-3.77c.62-1.26,1.28-2.61,2-4.08l9-18.61a5.59,5.59,0,0,1,.72-1.14,6.36,6.36,0,0,1,1.05-1,5.47,5.47,0,0,1,1.36-.75,4.85,4.85,0,0,1,1.69-.28h13.17Z" transform="translate(-570.22 -444.48)"/></svg>