<svg xmlns="http://www.w3.org/2000/svg" viewBox="0 0 236 110.3"><defs><style>.cls-1{fill:#00a0e3;}</style></defs><title>Asset 1</title><g id="Layer_2" data-name="Layer 2"><g id="Layer_1-2" data-name="Layer 1"><path d="M223.4,82.4V55.1a14.7,14.7,0,1,0-14.6,14.7H215V82.4h-6.8A27.3,27.3,0,1,1,236,55.1V82.4Z"/><path d="M139.7,82.4V55.2a14.7,14.7,0,0,0-29.4-.8h0v28H97.8V0h12.5V32.2l1.1-.6A27,27,0,0,1,125,27.9a27.2,27.2,0,0,1,27.2,27.3V82.4Z"/><path d="M76.8,82.4V55.1A14.7,14.7,0,1,0,62.1,69.8h6.3V82.4H61.6A27.3,27.3,0,1,1,89.4,55.1V82.4Z"/><path class="cls-1" d="M14,21.2H26.5v8.9A62.2,62.2,0,0,0,14,34.6Z"/><path d="M0,97.7A14.6,14.6,0,0,0,14,83.1V43.3a51.7,51.7,0,0,1,12.5-5.5V83.1a26.6,26.6,0,0,1-8,19.2,26.8,26.8,0,0,1-18.5,8Z"/><path class="cls-1" d="M173.4,34.6a60.9,60.9,0,0,0-12.6-4.5V21.2h12.6Z"/><path d="M160.8,82.4V37.8a52.4,52.4,0,0,1,12.6,5.5V82.4Z"/><path class="cls-1" d="M52.7,104.5v5.6H49.2V94.9h4.9a7.5,7.5,0,0,1,2.8.4,4.8,4.8,0,0,1,1.9.9,3.6,3.6,0,0,1,1.1,1.4,5.7,5.7,0,0,1,.3,1.8,3.2,3.2,0,0,1-.2,1.4,2.3,2.3,0,0,1-.6,1.2,2.2,2.2,0,0,1-.9,1,5.7,5.7,0,0,1-1.3.8l.6.4.6.6,3.2,5.3H58.4a1.5,1.5,0,0,1-1.3-.6L54.6,105l-.4-.4H52.7Zm0-2.4h1.4l1.2-.2a1.9,1.9,0,0,0,.9-.5,2,2,0,0,0,.4-.8,2.9,2.9,0,0,0,.2-.9,1.9,1.9,0,0,0-.7-1.6,3.4,3.4,0,0,0-2-.5H52.7Z"/><path class="cls-1" d="M72.6,94.9v2.7H66.4v3.6h4.8v2.6H66.4v3.6h6.2v2.7H62.8V94.9Z"/><path class="cls-1" d="M82.9,98l-.3.4h-1L81,98l-.8-.3-1-.2a2.1,2.1,0,0,0-1.5.5,1.3,1.3,0,0,0-.5,1.1,1.1,1.1,0,0,0,.3.8l.8.5,1,.4,1.3.4,1.2.5,1.1.8a4.4,4.4,0,0,1,.8,1.1,4.3,4.3,0,0,1,.3,1.7,4.1,4.1,0,0,1-.4,1.9,4.4,4.4,0,0,1-1,1.6,5.4,5.4,0,0,1-1.8,1.1,5.3,5.3,0,0,1-2.3.4l-1.4-.2a3.3,3.3,0,0,1-1.4-.4,5.2,5.2,0,0,1-1.3-.6l-1.1-.8,1.1-1.7.3-.3h.4l.7.2.7.5.9.4,1.2.2a2.1,2.1,0,0,0,1.5-.4,1.7,1.7,0,0,0,.6-1.4,1.1,1.1,0,0,0-.3-.8,2.4,2.4,0,0,0-.8-.6l-1.1-.4-1.2-.3-1.3-.5a3.9,3.9,0,0,1-1-.8,3.2,3.2,0,0,1-.8-1.2,4.8,4.8,0,0,1-.3-1.8,4.7,4.7,0,0,1,.3-1.7,4.9,4.9,0,0,1,1.1-1.4,4.6,4.6,0,0,1,1.6-1.1,7.3,7.3,0,0,1,2.2-.3h1.4a2.7,2.7,0,0,1,1.2.3l1.2.5.9.7Z"/><path class="cls-1" d="M100.5,102.5a10.6,10.6,0,0,1-.5,3.1,6.9,6.9,0,0,1-4.1,4.1,8.8,8.8,0,0,1-3.3.6,8.7,8.7,0,0,1-3.2-.6,7.2,7.2,0,0,1-2.5-1.6,8.1,8.1,0,0,1-2.2-5.6,7.3,7.3,0,0,1,.6-3A7.2,7.2,0,0,1,86.9,97a6,6,0,0,1,2.5-1.6,8.7,8.7,0,0,1,3.2-.6,8.8,8.8,0,0,1,3.3.6A8.2,8.2,0,0,1,98.4,97a7.2,7.2,0,0,1,1.6,2.5A9.4,9.4,0,0,1,100.5,102.5Zm-3.6,0a6.4,6.4,0,0,0-.3-2,3.6,3.6,0,0,0-.8-1.5,3.1,3.1,0,0,0-1.3-1,5.8,5.8,0,0,0-1.9-.3,5.7,5.7,0,0,0-1.8.3,2.6,2.6,0,0,0-1.3,1,3.8,3.8,0,0,0-.9,1.5,6.4,6.4,0,0,0-.3,2,6.6,6.6,0,0,0,.3,2.1,3.8,3.8,0,0,0,.9,1.5,3,3,0,0,0,1.3.9,3.9,3.9,0,0,0,1.8.4,4.1,4.1,0,0,0,1.9-.4,3.8,3.8,0,0,0,1.3-.9,3.6,3.6,0,0,0,.8-1.5A6.6,6.6,0,0,0,96.9,102.5Z"/><path class="cls-1" d="M108.3,107.3a2.7,2.7,0,0,0,1.3-.2,2.3,2.3,0,0,0,1-.7,3.1,3.1,0,0,0,.5-1,3.6,3.6,0,0,0,.2-1.5v-9h3.6v9a7.1,7.1,0,0,1-.5,2.6,5.3,5.3,0,0,1-1.3,2,4.6,4.6,0,0,1-2,1.3,8.2,8.2,0,0,1-2.8.5,7.6,7.6,0,0,1-2.7-.5,4.6,4.6,0,0,1-2-1.3,5.3,5.3,0,0,1-1.3-2,7.1,7.1,0,0,1-.5-2.6v-9h3.5v9a6.8,6.8,0,0,0,.2,1.5l.6,1a2.3,2.3,0,0,0,1,.7A2.3,2.3,0,0,0,108.3,107.3Z"/><path class="cls-1" d="M120.5,104.5v5.6H117V94.9h4.9a7.9,7.9,0,0,1,2.8.4,4.8,4.8,0,0,1,1.9.9,3.6,3.6,0,0,1,1.1,1.4,5.7,5.7,0,0,1,.3,1.8,3.2,3.2,0,0,1-.2,1.4,2.3,2.3,0,0,1-.6,1.2,2.2,2.2,0,0,1-.9,1,5.7,5.7,0,0,1-1.3.8l.6.4.6.6,3.2,5.3h-3.2a1.5,1.5,0,0,1-1.3-.6l-2.5-4.5-.4-.4h-1.5Zm0-2.4h1.4l1.2-.2a2.6,2.6,0,0,0,.9-.5,2,2,0,0,0,.4-.8,2.9,2.9,0,0,0,.2-.9,1.9,1.9,0,0,0-.7-1.6,3.4,3.4,0,0,0-2-.5h-1.4Z"/><path class="cls-1" d="M140.3,106.2h.3l.2.2,1.4,1.5a5.8,5.8,0,0,1-2.3,1.8,8.8,8.8,0,0,1-6.4,0,6.3,6.3,0,0,1-2.3-1.6,8.7,8.7,0,0,1-1.5-2.5,10.1,10.1,0,0,1-.5-3.1,7.8,7.8,0,0,1,.6-3.1,7.4,7.4,0,0,1,1.7-2.5,6.3,6.3,0,0,1,2.5-1.6,8,8,0,0,1,3.2-.5h1.6l1.4.4a4.7,4.7,0,0,1,1.2.7,3.9,3.9,0,0,1,1,.8l-1.2,1.6-.3.2-.4.2h-.4l-.3-.2-.4-.3-.6-.2-.7-.2h-.9a4.8,4.8,0,0,0-1.8.3,4.5,4.5,0,0,0-1.4,1,5.3,5.3,0,0,0-.8,1.5,4.5,4.5,0,0,0-.4,2,4.6,4.6,0,0,0,.4,2.1,5.3,5.3,0,0,0,.8,1.5,3.5,3.5,0,0,0,2.9,1.3h1.6l.6-.3.7-.5h.5Z"/><path class="cls-1" d="M153.4,94.9v2.7h-6.2v3.6h4.7v2.6h-4.7v3.6h6.2v2.7h-9.8V94.9Z"/><path class="cls-1" d="M169.2,106.2h.3l.2.2,1.4,1.5a5.8,5.8,0,0,1-2.3,1.8,8.8,8.8,0,0,1-6.4,0,7.3,7.3,0,0,1-2.3-1.6,8.7,8.7,0,0,1-1.5-2.5,10.1,10.1,0,0,1-.5-3.1,7.8,7.8,0,0,1,.6-3.1,7.4,7.4,0,0,1,1.7-2.5,7.2,7.2,0,0,1,2.5-1.6,8,8,0,0,1,3.2-.5h1.6l1.4.4a3.5,3.5,0,0,1,1.2.7,3.9,3.9,0,0,1,1,.8l-1.2,1.6c-.1.1-.1.2-.3.2l-.4.2h-.3l-.4-.2-.4-.3-.5-.2-.8-.2h-.9a4.8,4.8,0,0,0-1.8.3,3.2,3.2,0,0,0-1.3,1,3.8,3.8,0,0,0-.9,1.5,6.5,6.5,0,0,0-.4,2,6.5,6.5,0,0,0,.4,2.1,5.3,5.3,0,0,0,.8,1.5,3.5,3.5,0,0,0,2.9,1.3h1.6l.6-.3.7-.5h.5Z"/><path class="cls-1" d="M182.3,94.9v2.7h-6.2v3.6h4.7v2.6h-4.7v3.6h6.2v2.7h-9.8V94.9Z"/><path class="cls-1" d="M186.3,94.9h.3l.3.2.2.3,7.2,9.1V94.9h3.1v15.2h-2.6a2.3,2.3,0,0,1-.5-.5l-7.2-9a2.2,2.2,0,0,1,.1.8v8.8h-3.1V94.9h2.2Z"/><path class="cls-1" d="M210.7,94.9v2.8h-4.3v12.4h-3.5V97.7h-4.3V94.9Z"/><path class="cls-1" d="M221.8,94.9v2.7h-6.3v3.6h4.8v2.6h-4.8v3.6h6.3v2.7H212V94.9Z"/><path class="cls-1" d="M227.1,104.5v5.6h-3.6V94.9h5a7.9,7.9,0,0,1,2.8.4,4.8,4.8,0,0,1,1.9.9,3.6,3.6,0,0,1,1.1,1.4,5.7,5.7,0,0,1,.3,1.8,5.9,5.9,0,0,1-.2,1.4,2.3,2.3,0,0,1-.6,1.2,2.9,2.9,0,0,1-.9,1l-1.3.8.6.4.6.6,3.2,5.3h-3.2a1.5,1.5,0,0,1-1.3-.6L229,105c-.1-.1-.2-.3-.4-.4h-1.5Zm0-2.4h1.4l1.2-.2a1.6,1.6,0,0,0,.8-.5,1.4,1.4,0,0,0,.5-.8,2.9,2.9,0,0,0,.2-.9,2.2,2.2,0,0,0-.7-1.6,3.4,3.4,0,0,0-2-.5h-1.4Z"/></g></g></svg>